<mxfile host="app.diagrams.net" agent="Mozilla/5.0 (Windows NT 10.0; Win64; x64) AppleWebKit/537.36 (KHTML, like Gecko) Chrome/135.0.0.0 Safari/537.36" version="27.0.6">
  <diagram name="Page-1" id="ptUCvU12Tz-loSRQMGfn">
    <mxGraphModel dx="898" dy="750" grid="1" gridSize="10" guides="1" tooltips="1" connect="1" arrows="1" fold="1" page="1" pageScale="1" pageWidth="827" pageHeight="1169" math="0" shadow="0">
      <root>
        <mxCell id="0" />
        <mxCell id="1" parent="0" />
        <mxCell id="oRyb93DbCJ93ypAnQ1mE-1" value="" style="rounded=0;whiteSpace=wrap;html=1;" vertex="1" parent="1">
          <mxGeometry x="160" y="80" width="520" height="640" as="geometry" />
        </mxCell>
        <mxCell id="oRyb93DbCJ93ypAnQ1mE-2" value="&lt;b&gt;&lt;font style=&quot;font-size: 14px; color: light-dark(rgb(255, 0, 0), rgb(237, 237, 237));&quot;&gt;Site Internet Covoiturage&lt;/font&gt;&lt;/b&gt;" style="text;html=1;align=center;verticalAlign=middle;whiteSpace=wrap;rounded=0;" vertex="1" parent="1">
          <mxGeometry x="170" y="90" width="180" height="30" as="geometry" />
        </mxCell>
        <mxCell id="oRyb93DbCJ93ypAnQ1mE-12" style="rounded=0;orthogonalLoop=1;jettySize=auto;html=1;entryX=0;entryY=0.5;entryDx=0;entryDy=0;endArrow=none;startFill=0;" edge="1" parent="1" source="oRyb93DbCJ93ypAnQ1mE-3" target="oRyb93DbCJ93ypAnQ1mE-4">
          <mxGeometry relative="1" as="geometry" />
        </mxCell>
        <mxCell id="oRyb93DbCJ93ypAnQ1mE-3" value="Visiteur" style="shape=umlActor;verticalLabelPosition=bottom;verticalAlign=top;html=1;outlineConnect=0;" vertex="1" parent="1">
          <mxGeometry x="50" y="170" width="30" height="60" as="geometry" />
        </mxCell>
        <mxCell id="oRyb93DbCJ93ypAnQ1mE-13" style="edgeStyle=orthogonalEdgeStyle;rounded=0;orthogonalLoop=1;jettySize=auto;html=1;entryX=0;entryY=0.5;entryDx=0;entryDy=0;dashed=1;dashPattern=8 8;" edge="1" parent="1" source="oRyb93DbCJ93ypAnQ1mE-4" target="oRyb93DbCJ93ypAnQ1mE-5">
          <mxGeometry relative="1" as="geometry" />
        </mxCell>
        <mxCell id="oRyb93DbCJ93ypAnQ1mE-14" value="&lt;b&gt;&amp;lt;&amp;lt;includes&amp;gt;&amp;gt;&lt;/b&gt;" style="edgeLabel;html=1;align=center;verticalAlign=middle;resizable=0;points=[];" vertex="1" connectable="0" parent="oRyb93DbCJ93ypAnQ1mE-13">
          <mxGeometry x="-0.0462" y="-3" relative="1" as="geometry">
            <mxPoint as="offset" />
          </mxGeometry>
        </mxCell>
        <mxCell id="oRyb93DbCJ93ypAnQ1mE-4" value="Créer un compte" style="ellipse;whiteSpace=wrap;html=1;" vertex="1" parent="1">
          <mxGeometry x="210" y="165" width="140" height="70" as="geometry" />
        </mxCell>
        <mxCell id="oRyb93DbCJ93ypAnQ1mE-5" value="Valider l&#39;inscription" style="ellipse;whiteSpace=wrap;html=1;" vertex="1" parent="1">
          <mxGeometry x="480" y="165" width="140" height="70" as="geometry" />
        </mxCell>
        <mxCell id="oRyb93DbCJ93ypAnQ1mE-6" value="Système Email&lt;div&gt;&amp;lt;&amp;lt;secondary&amp;gt;&amp;gt;&lt;/div&gt;" style="shape=umlActor;verticalLabelPosition=bottom;verticalAlign=top;html=1;" vertex="1" parent="1">
          <mxGeometry x="730" y="160" width="30" height="60" as="geometry" />
        </mxCell>
        <mxCell id="oRyb93DbCJ93ypAnQ1mE-7" value="Membre" style="shape=umlActor;verticalLabelPosition=bottom;verticalAlign=top;html=1;" vertex="1" parent="1">
          <mxGeometry x="50" y="370" width="30" height="60" as="geometry" />
        </mxCell>
        <mxCell id="oRyb93DbCJ93ypAnQ1mE-8" value="Gérer son profil" style="ellipse;whiteSpace=wrap;html=1;" vertex="1" parent="1">
          <mxGeometry x="210" y="370" width="140" height="70" as="geometry" />
        </mxCell>
        <mxCell id="oRyb93DbCJ93ypAnQ1mE-9" value="Gérer ses annonces" style="ellipse;whiteSpace=wrap;html=1;" vertex="1" parent="1">
          <mxGeometry x="210" y="460" width="140" height="70" as="geometry" />
        </mxCell>
        <mxCell id="oRyb93DbCJ93ypAnQ1mE-10" value="Consulter les annonces disponibles" style="ellipse;whiteSpace=wrap;html=1;" vertex="1" parent="1">
          <mxGeometry x="210" y="260" width="140" height="70" as="geometry" />
        </mxCell>
        <mxCell id="oRyb93DbCJ93ypAnQ1mE-11" value="Gérer sa messagerie privée" style="ellipse;whiteSpace=wrap;html=1;" vertex="1" parent="1">
          <mxGeometry x="210" y="549.5" width="140" height="70" as="geometry" />
        </mxCell>
        <mxCell id="oRyb93DbCJ93ypAnQ1mE-15" style="rounded=0;orthogonalLoop=1;jettySize=auto;html=1;entryX=0.5;entryY=0.5;entryDx=0;entryDy=0;entryPerimeter=0;endArrow=none;startFill=0;" edge="1" parent="1" source="oRyb93DbCJ93ypAnQ1mE-5" target="oRyb93DbCJ93ypAnQ1mE-6">
          <mxGeometry relative="1" as="geometry" />
        </mxCell>
        <mxCell id="oRyb93DbCJ93ypAnQ1mE-17" style="rounded=0;orthogonalLoop=1;jettySize=auto;html=1;entryX=0;entryY=0.4;entryDx=0;entryDy=0;entryPerimeter=0;endArrow=none;startFill=0;" edge="1" parent="1" source="oRyb93DbCJ93ypAnQ1mE-3" target="oRyb93DbCJ93ypAnQ1mE-10">
          <mxGeometry relative="1" as="geometry" />
        </mxCell>
      </root>
    </mxGraphModel>
  </diagram>
</mxfile>
